<svg width="70" height="70" viewBox="0 0 70 70" fill="none" xmlns="http://www.w3.org/2000/svg">
<rect width="70" height="70" rx="12" fill="#e8f1f8"/>
<path d="M26.2243 53.7885C22.6321 53.7885 19.3905 52.9781 16.4992 51.3573C13.6518 49.6926 11.3739 47.4366 9.6654 44.5891C8.00075 41.7417 7.16843 38.5438 7.16843 34.9955C7.16843 31.4472 8.00075 28.2712 9.6654 25.4676C11.3301 22.6201 13.608 20.386 16.4992 18.7652C19.3905 17.1443 22.6321 16.3339 26.2243 16.3339C28.8965 16.3339 31.3716 16.7939 33.6495 17.7138C35.9274 18.6337 37.8768 19.926 39.4977 21.5907C41.1185 23.2115 42.2794 25.139 42.9803 27.3732L34.438 31.0529C33.8247 29.2568 32.7734 27.8331 31.2839 26.7818C29.8383 25.7304 28.1518 25.2047 26.2243 25.2047C24.5158 25.2047 22.9826 25.6209 21.6246 26.4532C20.3104 27.2855 19.259 28.4464 18.4705 29.9358C17.7258 31.4253 17.3535 33.1337 17.3535 35.0612C17.3535 36.9887 17.7258 38.6972 18.4705 40.1866C19.259 41.676 20.3104 42.8369 21.6246 43.6692C22.9826 44.5015 24.5158 44.9177 26.2243 44.9177C28.1956 44.9177 29.904 44.392 31.3497 43.3407C32.7953 42.2893 33.8247 40.8656 34.438 39.0695L42.9803 42.815C42.3232 44.9177 41.1842 46.8014 39.5634 48.466C37.9425 50.1307 35.9932 51.4449 33.7152 52.4086C31.4373 53.3285 28.9403 53.7885 26.2243 53.7885Z" fill="#0a1520"/>
<rect x="51.5445" y="41.3307" width="13.6896" height="13.0051" fill="#0ea5e9"/>
</svg>
